<svg xmlns="http://www.w3.org/2000/svg" viewBox="0 0 64 64" role="img" aria-label="WhatsApp icon">
  <rect width="64" height="64" rx="0" fill="#111111"/>
  <path d="M18 49l2.7-8.1A20 20 0 1 1 28.2 45L18 49Z" fill="none" stroke="#fff8f0" stroke-width="4" stroke-linecap="round" stroke-linejoin="round"/>
  <path d="M25.7 22.4c.5-.9 1.1-1 1.7-.9h1.5c.5 0 1 .1 1.4 1l1.8 4.4c.2.5.2 1-.1 1.4l-1.3 1.7c-.3.4-.3.7 0 1.1 1.1 2 2.8 3.6 5 4.8.4.2.8.2 1.1-.1l1.8-1.5c.4-.3.8-.4 1.3-.2l4.2 2c.6.3.9.8.9 1.5 0 2.9-2.2 4.8-5 4.8-7.9 0-16.2-7.1-16.2-15.8 0-1.5.5-2.8 1.9-4.2Z" fill="#fff8f0"/>
</svg>
